<?xml version="1.0" ?><svg id="Layer_1" style="enable-background:new 0 0 24 24;" version="1.1" viewBox="0 0 24 24" xml:space="preserve" xmlns="http://www.w3.org/2000/svg" xmlns:xlink="http://www.w3.org/1999/xlink"><g><path d="   M15.286,22.05c1.1-1.2,1.8-2.4,2.2-3.9c0.6-2.2,0.4-4.5-0.3-6.7c-0.6-2.1-2-4-2.3-6.1c-0.1-0.8,0.1-1.7,0.5-2.4   c0.6-1.2-0.3-1.2-0.3-1.2c-0.2,0-0.4,0-0.7,0c-1.3-0.1-2.5-0.2-3.8-0.3c-1.5-0.1-3.1-0.2-4.4-0.8c-0.2-0.1-0.5-0.2-0.7-0.2   c-0.3,0-1.3,0.4-1.1,0.8c0.1,0.2,0.2,0.3,0.3,0.4c0.5,0.5,1.1,1.3,1.2,2c0,0,0,3.4-1.4,6.8c-0.7,1.7-1.2,3.4-1.1,5.2   c0,0.8,0.1,1.6,0.3,2.3c0.4,1.5,1.2,3,2.2,4.1H15.286L15.286,22.05z" style="fill:none;stroke:#000000;stroke-width:0.5;stroke-linecap:round;stroke-linejoin:round;stroke-miterlimit:10;"/><line style="fill:none;stroke:#000000;stroke-width:0.5;stroke-linecap:round;stroke-linejoin:round;stroke-miterlimit:10;" x1="5.886" x2="15.086" y1="3.65" y2="3.65"/><path d="   M15.286,22.05c0,0,0.4,1.5-4.7,1.5s-4.7-1.5-4.7-1.5" style="fill:none;stroke:#000000;stroke-width:0.5;stroke-linecap:round;stroke-linejoin:round;stroke-miterlimit:10;"/><path d="   M14.986,4.15c0,0,3.8-0.4,5.2,2.9c1.8,4.1-2.5,6.7-2.5,6.7" style="fill:none;stroke:#000000;stroke-width:0.5;stroke-linecap:round;stroke-linejoin:round;stroke-miterlimit:10;"/><path d="   M15.086,6.15c0.5-0.3,1-0.5,1.6-0.5c1.5,0,2.5,1.4,2.7,2.8c0.3,1.6-0.7,2.9-2,3.7" style="fill:none;stroke:#000000;stroke-width:0.5;stroke-linecap:round;stroke-linejoin:round;stroke-miterlimit:10;"/></g></svg>